<?xml version="1.0" encoding="UTF-8" standalone="no"?>
<!DOCTYPE svg PUBLIC "-//W3C//DTD SVG 1.1//EN"
 "http://www.w3.org/Graphics/SVG/1.1/DTD/svg11.dtd">
<!-- Generated by graphviz version 2.40.1 (20161225.0304)
 -->
<!-- Title: dependencies Pages: 1 -->
<svg width="4547pt" height="284pt"
 viewBox="0.00 0.00 4547.00 284.00" xmlns="http://www.w3.org/2000/svg" xmlns:xlink="http://www.w3.org/1999/xlink">
<g id="graph0" class="graph" transform="scale(1 1) rotate(0) translate(4 280)">
<title>dependencies</title>
<polygon fill="#ffffff" stroke="transparent" points="-4,4 -4,-280 4543,-280 4543,4 -4,4"/>
<text text-anchor="start" x="2248.5091" y="-42.4" font-family="sans-serif" font-weight="bold" font-size="14.00" fill="#000000">Legend</text>
<polygon fill="#ffffb3" stroke="transparent" points="2035.5,-10 2035.5,-30 2055.5,-30 2055.5,-10 2035.5,-10"/>
<text text-anchor="start" x="2059.129" y="-15.4" font-family="sans-serif" font-size="14.00" fill="#000000"> &#160;Declarations</text>
<polygon fill="#8dd3c7" stroke="transparent" points="2148.5,-10 2148.5,-30 2168.5,-30 2168.5,-10 2148.5,-10"/>
<text text-anchor="start" x="2172.2251" y="-15.4" font-family="sans-serif" font-size="14.00" fill="#000000"> &#160;Module</text>
<polygon fill="#80b1d3" stroke="transparent" points="2234.5,-10 2234.5,-30 2254.5,-30 2254.5,-10 2234.5,-10"/>
<text text-anchor="start" x="2258.2812" y="-15.4" font-family="sans-serif" font-size="14.00" fill="#000000"> &#160;Bootstrap</text>
<polygon fill="#fdb462" stroke="transparent" points="2331.5,-10 2331.5,-30 2351.5,-30 2351.5,-10 2331.5,-10"/>
<text text-anchor="start" x="2355.1732" y="-15.4" font-family="sans-serif" font-size="14.00" fill="#000000"> &#160;Providers</text>
<polygon fill="#fb8072" stroke="transparent" points="2427.5,-10 2427.5,-30 2447.5,-30 2447.5,-10 2427.5,-10"/>
<text text-anchor="start" x="2451.2258" y="-15.4" font-family="sans-serif" font-size="14.00" fill="#000000"> &#160;Exports</text>
<g id="clust1" class="cluster">
<title>cluster_AppModule</title>
<polygon fill="none" stroke="#000000" stroke-dasharray="1,5" points="8,-70 8,-268 4531,-268 4531,-70 8,-70"/>
</g>
<g id="clust2" class="cluster">
<title>cluster_AppModule_declarations</title>
<polygon fill="none" stroke="#000000" points="638,-78 638,-130 4523,-130 4523,-78 638,-78"/>
</g>
<g id="clust29" class="cluster">
<title>cluster_AppModule_bootstrap</title>
<polygon fill="none" stroke="#000000" points="2324,-208 2324,-260 2448,-260 2448,-208 2324,-208"/>
</g>
<g id="clust30" class="cluster">
<title>cluster_AppModule_providers</title>
<polygon fill="none" stroke="#000000" points="16,-78 16,-130 630,-130 630,-78 16,-78"/>
</g>
<!-- AppComponent -->
<g id="node1" class="node">
<title>AppComponent</title>
<polygon fill="#ffffb3" stroke="#000000" points="4514.9399,-122 4409.0601,-122 4409.0601,-86 4514.9399,-86 4514.9399,-122"/>
<text text-anchor="middle" x="4462" y="-99.8" font-family="Times,serif" font-size="14.00" fill="#000000">AppComponent</text>
</g>
<!-- AppModule -->
<g id="node25" class="node">
<title>AppModule</title>
<polygon fill="#8dd3c7" stroke="#000000" points="2427.6571,-187 2424.6571,-191 2403.6571,-191 2400.6571,-187 2344.3429,-187 2344.3429,-151 2427.6571,-151 2427.6571,-187"/>
<text text-anchor="middle" x="2386" y="-164.8" font-family="Times,serif" font-size="14.00" fill="#000000">AppModule</text>
</g>
<!-- AppComponent&#45;&gt;AppModule -->
<g id="edge1" class="edge">
<title>AppComponent&#45;&gt;AppModule</title>
<path fill="none" stroke="#000000" d="M4462,-122.3802C4462,-146.2785 4462,-185 4462,-185 4462,-185 2437.938,-185 2437.938,-185"/>
<polygon fill="#000000" stroke="#000000" points="2437.9381,-181.5001 2427.938,-185 2437.938,-188.5001 2437.9381,-181.5001"/>
</g>
<!-- HeaderComponent -->
<g id="node2" class="node">
<title>HeaderComponent</title>
<polygon fill="#ffffb3" stroke="#000000" points="4390.7437,-122 4269.2563,-122 4269.2563,-86 4390.7437,-86 4390.7437,-122"/>
<text text-anchor="middle" x="4330" y="-99.8" font-family="Times,serif" font-size="14.00" fill="#000000">HeaderComponent</text>
</g>
<!-- HeaderComponent&#45;&gt;AppModule -->
<g id="edge2" class="edge">
<title>HeaderComponent&#45;&gt;AppModule</title>
<path fill="none" stroke="#000000" d="M4330,-122.3228C4330,-145.6602 4330,-183 4330,-183 4330,-183 2437.9557,-183 2437.9557,-183"/>
<polygon fill="#000000" stroke="#000000" points="2437.9557,-179.5001 2427.9557,-183 2437.9557,-186.5001 2437.9557,-179.5001"/>
</g>
<!-- HomeComponent -->
<g id="node3" class="node">
<title>HomeComponent</title>
<polygon fill="#ffffb3" stroke="#000000" points="4250.5451,-122 4135.4549,-122 4135.4549,-86 4250.5451,-86 4250.5451,-122"/>
<text text-anchor="middle" x="4193" y="-99.8" font-family="Times,serif" font-size="14.00" fill="#000000">HomeComponent</text>
</g>
<!-- HomeComponent&#45;&gt;AppModule -->
<g id="edge3" class="edge">
<title>HomeComponent&#45;&gt;AppModule</title>
<path fill="none" stroke="#000000" d="M4193,-122.0109C4193,-144.4852 4193,-180 4193,-180 4193,-180 2438.0069,-180 2438.0069,-180"/>
<polygon fill="#000000" stroke="#000000" points="2438.0069,-176.5001 2428.0069,-180 2438.0069,-183.5001 2438.0069,-176.5001"/>
</g>
<!-- ContentComponent -->
<g id="node4" class="node">
<title>ContentComponent</title>
<polygon fill="#ffffb3" stroke="#000000" points="4116.6652,-122 3991.3348,-122 3991.3348,-86 4116.6652,-86 4116.6652,-122"/>
<text text-anchor="middle" x="4054" y="-99.8" font-family="Times,serif" font-size="14.00" fill="#000000">ContentComponent</text>
</g>
<!-- ContentComponent&#45;&gt;AppModule -->
<g id="edge4" class="edge">
<title>ContentComponent&#45;&gt;AppModule</title>
<path fill="none" stroke="#000000" d="M4054,-122.2921C4054,-144.2057 4054,-178 4054,-178 4054,-178 2438.0659,-178 2438.0659,-178"/>
<polygon fill="#000000" stroke="#000000" points="2438.066,-174.5001 2428.0659,-178 2438.0659,-181.5001 2438.066,-174.5001"/>
</g>
<!-- TaxonsComponent -->
<g id="node5" class="node">
<title>TaxonsComponent</title>
<polygon fill="#ffffb3" stroke="#000000" points="3973.045,-122 3850.955,-122 3850.955,-86 3973.045,-86 3973.045,-122"/>
<text text-anchor="middle" x="3912" y="-99.8" font-family="Times,serif" font-size="14.00" fill="#000000">TaxonsComponent</text>
</g>
<!-- TaxonsComponent&#45;&gt;AppModule -->
<g id="edge5" class="edge">
<title>TaxonsComponent&#45;&gt;AppModule</title>
<path fill="none" stroke="#000000" d="M3912,-122.2843C3912,-143.3211 3912,-175 3912,-175 3912,-175 2438.0066,-175 2438.0066,-175"/>
<polygon fill="#000000" stroke="#000000" points="2438.0066,-171.5001 2428.0066,-175 2438.0065,-178.5001 2438.0066,-171.5001"/>
</g>
<!-- RoomListComponent -->
<g id="node6" class="node">
<title>RoomListComponent</title>
<polygon fill="#ffffb3" stroke="#000000" points="3832.8384,-122 3695.1616,-122 3695.1616,-86 3832.8384,-86 3832.8384,-122"/>
<text text-anchor="middle" x="3764" y="-99.8" font-family="Times,serif" font-size="14.00" fill="#000000">RoomListComponent</text>
</g>
<!-- RoomListComponent&#45;&gt;AppModule -->
<g id="edge6" class="edge">
<title>RoomListComponent&#45;&gt;AppModule</title>
<path fill="none" stroke="#000000" d="M3786.8897,-122.1289C3786.8897,-142.5724 3786.8897,-173 3786.8897,-173 3786.8897,-173 2437.9258,-173 2437.9258,-173"/>
<polygon fill="#000000" stroke="#000000" points="2437.9259,-169.5001 2427.9258,-173 2437.9258,-176.5001 2437.9259,-169.5001"/>
</g>
<!-- RoomListComponent&#45;&gt;AppModule -->
<g id="edge13" class="edge">
<title>RoomListComponent&#45;&gt;AppModule</title>
<path fill="none" stroke="#000000" d="M3741.1103,-122.308C3741.1103,-142.1455 3741.1103,-171 3741.1103,-171 3741.1103,-171 2437.6679,-171 2437.6679,-171"/>
<polygon fill="#000000" stroke="#000000" points="2437.668,-167.5001 2427.6679,-171 2437.6679,-174.5001 2437.668,-167.5001"/>
</g>
<!-- RoomListItemComponent -->
<g id="node7" class="node">
<title>RoomListItemComponent</title>
<polygon fill="#ffffb3" stroke="#000000" points="3677.4944,-122 3514.5056,-122 3514.5056,-86 3677.4944,-86 3677.4944,-122"/>
<text text-anchor="middle" x="3596" y="-99.8" font-family="Times,serif" font-size="14.00" fill="#000000">RoomListItemComponent</text>
</g>
<!-- RoomListItemComponent&#45;&gt;AppModule -->
<g id="edge7" class="edge">
<title>RoomListItemComponent&#45;&gt;AppModule</title>
<path fill="none" stroke="#000000" d="M3596,-122.1686C3596,-141.0898 3596,-168 3596,-168 3596,-168 2438.0023,-168 2438.0023,-168"/>
<polygon fill="#000000" stroke="#000000" points="2438.0024,-164.5001 2428.0023,-168 2438.0023,-171.5001 2438.0024,-164.5001"/>
</g>
<!-- FilterSummaryComponent -->
<g id="node8" class="node">
<title>FilterSummaryComponent</title>
<polygon fill="#ffffb3" stroke="#000000" points="3496.101,-122 3329.899,-122 3329.899,-86 3496.101,-86 3496.101,-122"/>
<text text-anchor="middle" x="3413" y="-99.8" font-family="Times,serif" font-size="14.00" fill="#000000">FilterSummaryComponent</text>
</g>
<!-- FilterSummaryComponent&#45;&gt;AppModule -->
<g id="edge8" class="edge">
<title>FilterSummaryComponent&#45;&gt;AppModule</title>
<path fill="none" stroke="#000000" d="M3413,-122.2667C3413,-140.5552 3413,-166 3413,-166 3413,-166 2437.8524,-166 2437.8524,-166"/>
<polygon fill="#000000" stroke="#000000" points="2437.8524,-162.5001 2427.8524,-166 2437.8523,-169.5001 2437.8524,-162.5001"/>
</g>
<!-- CustomizeComponent -->
<g id="node9" class="node">
<title>CustomizeComponent</title>
<polygon fill="#ffffb3" stroke="#000000" points="3311.7148,-122 3170.2852,-122 3170.2852,-86 3311.7148,-86 3311.7148,-122"/>
<text text-anchor="middle" x="3241" y="-99.8" font-family="Times,serif" font-size="14.00" fill="#000000">CustomizeComponent</text>
</g>
<!-- CustomizeComponent&#45;&gt;AppModule -->
<g id="edge9" class="edge">
<title>CustomizeComponent&#45;&gt;AppModule</title>
<path fill="none" stroke="#000000" d="M3241,-122.0225C3241,-139.3734 3241,-163 3241,-163 3241,-163 2437.8172,-163 2437.8172,-163"/>
<polygon fill="#000000" stroke="#000000" points="2437.8172,-159.5001 2427.8172,-163 2437.8172,-166.5001 2437.8172,-159.5001"/>
</g>
<!-- ContentHeaderComponent -->
<g id="node10" class="node">
<title>ContentHeaderComponent</title>
<polygon fill="#ffffb3" stroke="#000000" points="3152.0758,-122 2985.9242,-122 2985.9242,-86 3152.0758,-86 3152.0758,-122"/>
<text text-anchor="middle" x="3069" y="-99.8" font-family="Times,serif" font-size="14.00" fill="#000000">ContentHeaderComponent</text>
</g>
<!-- ContentHeaderComponent&#45;&gt;AppModule -->
<g id="edge10" class="edge">
<title>ContentHeaderComponent&#45;&gt;AppModule</title>
<path fill="none" stroke="#000000" d="M3069,-122.0352C3069,-138.7344 3069,-161 3069,-161 3069,-161 2437.6966,-161 2437.6966,-161"/>
<polygon fill="#000000" stroke="#000000" points="2437.6966,-157.5001 2427.6966,-161 2437.6965,-164.5001 2437.6966,-157.5001"/>
</g>
<!-- BreadcrumbComponent -->
<g id="node11" class="node">
<title>BreadcrumbComponent</title>
<polygon fill="#ffffb3" stroke="#000000" points="2968.0253,-122 2817.9747,-122 2817.9747,-86 2968.0253,-86 2968.0253,-122"/>
<text text-anchor="middle" x="2893" y="-99.8" font-family="Times,serif" font-size="14.00" fill="#000000">BreadcrumbComponent</text>
</g>
<!-- BreadcrumbComponent&#45;&gt;AppModule -->
<g id="edge11" class="edge">
<title>BreadcrumbComponent&#45;&gt;AppModule</title>
<path fill="none" stroke="#000000" d="M2893,-122.0091C2893,-138.0494 2893,-159 2893,-159 2893,-159 2437.9213,-159 2437.9213,-159"/>
<polygon fill="#000000" stroke="#000000" points="2437.9213,-155.5001 2427.9213,-159 2437.9212,-162.5001 2437.9213,-155.5001"/>
</g>
<!-- FooterComponent -->
<g id="node12" class="node">
<title>FooterComponent</title>
<polygon fill="#ffffb3" stroke="#000000" points="2799.8809,-122 2682.1191,-122 2682.1191,-86 2799.8809,-86 2799.8809,-122"/>
<text text-anchor="middle" x="2741" y="-99.8" font-family="Times,serif" font-size="14.00" fill="#000000">FooterComponent</text>
</g>
<!-- FooterComponent&#45;&gt;AppModule -->
<g id="edge12" class="edge">
<title>FooterComponent&#45;&gt;AppModule</title>
<path fill="none" stroke="#000000" d="M2741,-122.1871C2741,-137.1824 2741,-156 2741,-156 2741,-156 2437.7669,-156 2437.7669,-156"/>
<polygon fill="#000000" stroke="#000000" points="2437.767,-152.5001 2427.7669,-156 2437.7669,-159.5001 2437.767,-152.5001"/>
</g>
<!-- RoomDetailPageComponent -->
<g id="node13" class="node">
<title>RoomDetailPageComponent</title>
<polygon fill="#ffffb3" stroke="#000000" points="2664.479,-122 2487.521,-122 2487.521,-86 2664.479,-86 2664.479,-122"/>
<text text-anchor="middle" x="2576" y="-99.8" font-family="Times,serif" font-size="14.00" fill="#000000">RoomDetailPageComponent</text>
</g>
<!-- RoomDetailPageComponent&#45;&gt;AppModule -->
<g id="edge14" class="edge">
<title>RoomDetailPageComponent&#45;&gt;AppModule</title>
<path fill="none" stroke="#000000" d="M2576,-122.0511C2576,-136.373 2576,-154 2576,-154 2576,-154 2437.6963,-154 2437.6963,-154"/>
<polygon fill="#000000" stroke="#000000" points="2437.6963,-150.5001 2427.6963,-154 2437.6963,-157.5001 2437.6963,-150.5001"/>
</g>
<!-- RoomPriceInfoComponent -->
<g id="node14" class="node">
<title>RoomPriceInfoComponent</title>
<polygon fill="#ffffb3" stroke="#000000" points="2469.6442,-122 2302.3558,-122 2302.3558,-86 2469.6442,-86 2469.6442,-122"/>
<text text-anchor="middle" x="2386" y="-99.8" font-family="Times,serif" font-size="14.00" fill="#000000">RoomPriceInfoComponent</text>
</g>
<!-- RoomPriceInfoComponent&#45;&gt;AppModule -->
<g id="edge15" class="edge">
<title>RoomPriceInfoComponent&#45;&gt;AppModule</title>
<path fill="none" stroke="#000000" d="M2386,-122.1061C2386,-122.1061 2386,-140.991 2386,-140.991"/>
<polygon fill="#000000" stroke="#000000" points="2382.5001,-140.9909 2386,-150.991 2389.5001,-140.991 2382.5001,-140.9909"/>
</g>
<!-- RoomImagesComponent -->
<g id="node15" class="node">
<title>RoomImagesComponent</title>
<polygon fill="#ffffb3" stroke="#000000" points="2283.9846,-122 2128.0154,-122 2128.0154,-86 2283.9846,-86 2283.9846,-122"/>
<text text-anchor="middle" x="2206" y="-99.8" font-family="Times,serif" font-size="14.00" fill="#000000">RoomImagesComponent</text>
</g>
<!-- RoomImagesComponent&#45;&gt;AppModule -->
<g id="edge16" class="edge">
<title>RoomImagesComponent&#45;&gt;AppModule</title>
<path fill="none" stroke="#000000" d="M2206,-122.0511C2206,-136.373 2206,-154 2206,-154 2206,-154 2334.252,-154 2334.252,-154"/>
<polygon fill="#000000" stroke="#000000" points="2334.252,-157.5001 2344.252,-154 2334.2519,-150.5001 2334.252,-157.5001"/>
</g>
<!-- RoomDetailsComponent -->
<g id="node16" class="node">
<title>RoomDetailsComponent</title>
<polygon fill="#ffffb3" stroke="#000000" points="2109.7119,-122 1954.2881,-122 1954.2881,-86 2109.7119,-86 2109.7119,-122"/>
<text text-anchor="middle" x="2032" y="-99.8" font-family="Times,serif" font-size="14.00" fill="#000000">RoomDetailsComponent</text>
</g>
<!-- RoomDetailsComponent&#45;&gt;AppModule -->
<g id="edge17" class="edge">
<title>RoomDetailsComponent&#45;&gt;AppModule</title>
<path fill="none" stroke="#000000" d="M2032,-122.1871C2032,-137.1824 2032,-156 2032,-156 2032,-156 2334.0014,-156 2334.0014,-156"/>
<polygon fill="#000000" stroke="#000000" points="2334.0015,-159.5001 2344.0014,-156 2334.0014,-152.5001 2334.0015,-159.5001"/>
</g>
<!-- RoomDescriptionComponent -->
<g id="node17" class="node">
<title>RoomDescriptionComponent</title>
<polygon fill="#ffffb3" stroke="#000000" points="1936.3724,-122 1755.6276,-122 1755.6276,-86 1936.3724,-86 1936.3724,-122"/>
<text text-anchor="middle" x="1846" y="-99.8" font-family="Times,serif" font-size="14.00" fill="#000000">RoomDescriptionComponent</text>
</g>
<!-- RoomDescriptionComponent&#45;&gt;AppModule -->
<g id="edge18" class="edge">
<title>RoomDescriptionComponent&#45;&gt;AppModule</title>
<path fill="none" stroke="#000000" d="M1846,-122.0091C1846,-138.0494 1846,-159 1846,-159 1846,-159 2334.0764,-159 2334.0764,-159"/>
<polygon fill="#000000" stroke="#000000" points="2334.0765,-162.5001 2344.0764,-159 2334.0764,-155.5001 2334.0765,-162.5001"/>
</g>
<!-- CalendarComponent -->
<g id="node18" class="node">
<title>CalendarComponent</title>
<polygon fill="#ffffb3" stroke="#000000" points="1737.8641,-122 1606.1359,-122 1606.1359,-86 1737.8641,-86 1737.8641,-122"/>
<text text-anchor="middle" x="1672" y="-99.8" font-family="Times,serif" font-size="14.00" fill="#000000">CalendarComponent</text>
</g>
<!-- CalendarComponent&#45;&gt;AppModule -->
<g id="edge19" class="edge">
<title>CalendarComponent&#45;&gt;AppModule</title>
<path fill="none" stroke="#000000" d="M1672,-122.0352C1672,-138.7344 1672,-161 1672,-161 1672,-161 2334.2643,-161 2334.2643,-161"/>
<polygon fill="#000000" stroke="#000000" points="2334.2643,-164.5001 2344.2643,-161 2334.2642,-157.5001 2334.2643,-164.5001"/>
</g>
<!-- ReservationComponent -->
<g id="node19" class="node">
<title>ReservationComponent</title>
<polygon fill="#ffffb3" stroke="#000000" points="1588.1993,-122 1439.8007,-122 1439.8007,-86 1588.1993,-86 1588.1993,-122"/>
<text text-anchor="middle" x="1514" y="-99.8" font-family="Times,serif" font-size="14.00" fill="#000000">ReservationComponent</text>
</g>
<!-- ReservationComponent&#45;&gt;AppModule -->
<g id="edge20" class="edge">
<title>ReservationComponent&#45;&gt;AppModule</title>
<path fill="none" stroke="#000000" d="M1514,-122.0225C1514,-139.3734 1514,-163 1514,-163 1514,-163 2334.2354,-163 2334.2354,-163"/>
<polygon fill="#000000" stroke="#000000" points="2334.2354,-166.5001 2344.2354,-163 2334.2354,-159.5001 2334.2354,-166.5001"/>
</g>
<!-- ProfileDropdownComponent -->
<g id="node20" class="node">
<title>ProfileDropdownComponent</title>
<polygon fill="#ffffb3" stroke="#000000" points="1421.8061,-122 1242.1939,-122 1242.1939,-86 1421.8061,-86 1421.8061,-122"/>
<text text-anchor="middle" x="1332" y="-99.8" font-family="Times,serif" font-size="14.00" fill="#000000">ProfileDropdownComponent</text>
</g>
<!-- ProfileDropdownComponent&#45;&gt;AppModule -->
<g id="edge21" class="edge">
<title>ProfileDropdownComponent&#45;&gt;AppModule</title>
<path fill="none" stroke="#000000" d="M1332,-122.2667C1332,-140.5552 1332,-166 1332,-166 1332,-166 2334.0315,-166 2334.0315,-166"/>
<polygon fill="#000000" stroke="#000000" points="2334.0316,-169.5001 2344.0315,-166 2334.0315,-162.5001 2334.0316,-169.5001"/>
</g>
<!-- LoginComponent -->
<g id="node21" class="node">
<title>LoginComponent</title>
<polygon fill="#ffffb3" stroke="#000000" points="1224.2758,-122 1109.7242,-122 1109.7242,-86 1224.2758,-86 1224.2758,-122"/>
<text text-anchor="middle" x="1167" y="-99.8" font-family="Times,serif" font-size="14.00" fill="#000000">LoginComponent</text>
</g>
<!-- LoginComponent&#45;&gt;AppModule -->
<g id="edge22" class="edge">
<title>LoginComponent&#45;&gt;AppModule</title>
<path fill="none" stroke="#000000" d="M1167,-122.1686C1167,-141.0898 1167,-168 1167,-168 1167,-168 2334.0393,-168 2334.0393,-168"/>
<polygon fill="#000000" stroke="#000000" points="2334.0393,-171.5001 2344.0393,-168 2334.0392,-164.5001 2334.0393,-171.5001"/>
</g>
<!-- SignUpComponent -->
<g id="node22" class="node">
<title>SignUpComponent</title>
<polygon fill="#ffffb3" stroke="#000000" points="1092.1123,-122 967.8877,-122 967.8877,-86 1092.1123,-86 1092.1123,-122"/>
<text text-anchor="middle" x="1030" y="-99.8" font-family="Times,serif" font-size="14.00" fill="#000000">SignUpComponent</text>
</g>
<!-- SignUpComponent&#45;&gt;AppModule -->
<g id="edge23" class="edge">
<title>SignUpComponent&#45;&gt;AppModule</title>
<path fill="none" stroke="#000000" d="M1030,-122.308C1030,-142.1455 1030,-171 1030,-171 1030,-171 2334.3047,-171 2334.3047,-171"/>
<polygon fill="#000000" stroke="#000000" points="2334.3047,-174.5001 2344.3047,-171 2334.3047,-167.5001 2334.3047,-174.5001"/>
</g>
<!-- RoomAddPageComponent -->
<g id="node23" class="node">
<title>RoomAddPageComponent</title>
<polygon fill="#ffffb3" stroke="#000000" points="950.378,-122 783.622,-122 783.622,-86 950.378,-86 950.378,-122"/>
<text text-anchor="middle" x="867" y="-99.8" font-family="Times,serif" font-size="14.00" fill="#000000">RoomAddPageComponent</text>
</g>
<!-- RoomAddPageComponent&#45;&gt;AppModule -->
<g id="edge24" class="edge">
<title>RoomAddPageComponent&#45;&gt;AppModule</title>
<path fill="none" stroke="#000000" d="M867,-122.1289C867,-142.5724 867,-173 867,-173 867,-173 2334.1861,-173 2334.1861,-173"/>
<polygon fill="#000000" stroke="#000000" points="2334.1861,-176.5001 2344.1861,-173 2334.1861,-169.5001 2334.1861,-176.5001"/>
</g>
<!-- SearchComponent -->
<g id="node24" class="node">
<title>SearchComponent</title>
<polygon fill="#ffffb3" stroke="#000000" points="765.9201,-122 646.0799,-122 646.0799,-86 765.9201,-86 765.9201,-122"/>
<text text-anchor="middle" x="706" y="-99.8" font-family="Times,serif" font-size="14.00" fill="#000000">SearchComponent</text>
</g>
<!-- SearchComponent&#45;&gt;AppModule -->
<g id="edge25" class="edge">
<title>SearchComponent&#45;&gt;AppModule</title>
<path fill="none" stroke="#000000" d="M706,-122.2843C706,-143.3211 706,-175 706,-175 706,-175 2334.0525,-175 2334.0525,-175"/>
<polygon fill="#000000" stroke="#000000" points="2334.0526,-178.5001 2344.0525,-175 2334.0525,-171.5001 2334.0526,-178.5001"/>
</g>
<!-- AppComponent  -->
<g id="node26" class="node">
<title>AppComponent </title>
<polygon fill="#80b1d3" stroke="#000000" points="2440.439,-252 2331.561,-252 2331.561,-216 2440.439,-216 2440.439,-252"/>
<text text-anchor="middle" x="2386" y="-229.8" font-family="Times,serif" font-size="14.00" fill="#000000">AppComponent </text>
</g>
<!-- AppModule&#45;&gt;AppComponent  -->
<g id="edge26" class="edge">
<title>AppModule&#45;&gt;AppComponent </title>
<path fill="none" stroke="#000000" stroke-dasharray="1,5" d="M2386,-187.1061C2386,-187.1061 2386,-205.991 2386,-205.991"/>
<polygon fill="#000000" stroke="#000000" points="2382.5001,-205.9909 2386,-215.991 2389.5001,-205.991 2382.5001,-205.9909"/>
</g>
<!-- AuthService -->
<g id="node27" class="node">
<title>AuthService</title>
<ellipse fill="#fdb462" stroke="#000000" cx="563" cy="-104" rx="59.1083" ry="18"/>
<text text-anchor="middle" x="563" y="-99.8" font-family="Times,serif" font-size="14.00" fill="#000000">AuthService</text>
</g>
<!-- AuthService&#45;&gt;AppModule -->
<g id="edge27" class="edge">
<title>AuthService&#45;&gt;AppModule</title>
<path fill="none" stroke="#000000" d="M563,-122.2921C563,-144.2057 563,-178 563,-178 563,-178 2334.0611,-178 2334.0611,-178"/>
<polygon fill="#000000" stroke="#000000" points="2334.0611,-181.5001 2344.0611,-178 2334.0611,-174.5001 2334.0611,-181.5001"/>
</g>
<!-- RoomService -->
<g id="node28" class="node">
<title>RoomService</title>
<ellipse fill="#fdb462" stroke="#000000" cx="422" cy="-104" rx="63.7025" ry="18"/>
<text text-anchor="middle" x="422" y="-99.8" font-family="Times,serif" font-size="14.00" fill="#000000">RoomService</text>
</g>
<!-- RoomService&#45;&gt;AppModule -->
<g id="edge28" class="edge">
<title>RoomService&#45;&gt;AppModule</title>
<path fill="none" stroke="#000000" d="M422,-122.0109C422,-144.4852 422,-180 422,-180 422,-180 2334.0705,-180 2334.0705,-180"/>
<polygon fill="#000000" stroke="#000000" points="2334.0705,-183.5001 2344.0705,-180 2334.0704,-176.5001 2334.0705,-183.5001"/>
</g>
<!-- ReservationService -->
<g id="node29" class="node">
<title>ReservationService</title>
<ellipse fill="#fdb462" stroke="#000000" cx="254" cy="-104" rx="86.2309" ry="18"/>
<text text-anchor="middle" x="254" y="-99.8" font-family="Times,serif" font-size="14.00" fill="#000000">ReservationService</text>
</g>
<!-- ReservationService&#45;&gt;AppModule -->
<g id="edge29" class="edge">
<title>ReservationService&#45;&gt;AppModule</title>
<path fill="none" stroke="#000000" d="M254,-122.3228C254,-145.6602 254,-183 254,-183 254,-183 2333.8917,-183 2333.8917,-183"/>
<polygon fill="#000000" stroke="#000000" points="2333.8918,-186.5001 2343.8917,-183 2333.8917,-179.5001 2333.8918,-186.5001"/>
</g>
<!-- EventService -->
<g id="node30" class="node">
<title>EventService</title>
<ellipse fill="#fdb462" stroke="#000000" cx="87" cy="-104" rx="62.5373" ry="18"/>
<text text-anchor="middle" x="87" y="-99.8" font-family="Times,serif" font-size="14.00" fill="#000000">EventService</text>
</g>
<!-- EventService&#45;&gt;AppModule -->
<g id="edge30" class="edge">
<title>EventService&#45;&gt;AppModule</title>
<path fill="none" stroke="#000000" d="M87,-122.3802C87,-146.2785 87,-185 87,-185 87,-185 2334.134,-185 2334.134,-185"/>
<polygon fill="#000000" stroke="#000000" points="2334.1341,-188.5001 2344.134,-185 2334.134,-181.5001 2334.1341,-188.5001"/>
</g>
</g>
</svg>
